<svg width="1000" height="1000" viewBox="0 0 1000 1000" xmlns="http://www.w3.org/2000/svg"><defs/><path fill="#aa36a5" transform="matrix(0.46677605950521117 0 0 0.46677605950521117 24.24343120341795 54.44216432451794)" d="M 1236.33943850267 552.23669966578 L 1194.33943850267 552.23669966578 L 1194.33943850267 515.53669966578 L 1068.33943850267 515.53669966578 C 1040.93943850267 515.53669966578 1027.23943850267 525.03669966578 1019.23943850267 541.33669966578 C 1011.23943850267 525.03669966578 997.53943850267 515.53669966578 970.13943850267 515.53669966578 L 844.13943850267 515.53669966578 L 844.13943850267 552.23669966578 L 802.13943850267 552.23669966578 L 802.13943850267 801.93669966578 L 975.23943850267 801.93669966578 C 998.73943850267 801.93669966578 1004.33943850267 810.63669966578 1006.23943850267 813.43669966578 C 1009.03943850267 817.83669966578 1014.13943850267 820.53669966578 1019.53943850267 820.53669966578 C 1019.53943850267 820.53669966578 1019.53943850267 820.53669966578 1019.53943850267 820.53669966578 C 1024.73943850267 820.53669966578 1029.43943850267 818.03669966578 1032.13943850267 813.73669966578 C 1033.93943850267 810.83669966578 1039.53943850267 801.93669966578 1063.33943850267 801.93669966578 L 1083.33943850267 801.93669966578 L 1083.33943850267 849.43669966578 L 1102.03943850267 832.13669966578 L 1120.73943850267 845.43669966578 L 1120.73943850267 801.93669966578 L 1236.33943850267 801.93669966578 L 1236.33943850267 552.23669966578 Z M 858.53943850267 529.93669966578 L 970.23943850267 529.93669966578 C 999.13943850267 529.93669966578 1006.53943850267 540.93669966578 1012.33943850267 565.53669966578 L 1019.33943850267 595.53669966578 L 1026.33943850267 565.53669966578 C 1032.13943850267 540.93669966578 1039.53943850267 529.93669966578 1068.43943850267 529.93669966578 L 1180.13943850267 529.93669966578 L 1180.13943850267 740.23669966578 L 1055.13943850267 740.23669966578 C 1038.83943850267 740.23669966578 1026.83943850267 744.63669966578 1019.33943850267 753.23669966578 C 1011.83943850267 744.63669966578 999.73943850267 740.23669966578 983.53943850267 740.23669966578 L 858.53943850267 740.23669966578 L 858.53943850267 529.93669966578 Z M 1214.73943850267 780.33669966578 L 1063.33943850267 780.33669966578 C 1043.73943850267 780.33669966578 1029.03943850267 785.33669966578 1019.33943850267 795.33669966578 C 1009.63943850267 785.33669966578 994.83943850267 780.33669966578 975.33943850267 780.33669966578 L 823.73943850267 780.33669966578 L 823.73943850267 573.83669966578 L 844.13943850267 573.83669966578 L 844.13943850267 754.63669966578 L 983.43943850267 754.63669966578 C 996.53943850267 754.63669966578 1005.03943850267 757.73669966578 1009.63943850267 764.13669966578 C 1011.93943850267 767.43669966578 1015.83943850267 769.43669966578 1019.83943850267 769.43669966578 C 1019.83943850267 769.43669966578 1019.83943850267 769.43669966578 1019.83943850267 769.43669966578 C 1023.43943850267 769.43669966578 1026.63943850267 767.73669966578 1028.53943850267 764.83669966578 C 1032.93943850267 757.93669966578 1041.63943850267 754.63669966578 1055.13943850267 754.63669966578 L 1194.43943850267 754.63669966578 L 1194.43943850267 573.83669966578 L 1214.83943850267 573.83669966578 L 1214.83943850267 780.33669966578 Z"/><path fill="#aa36a5" transform="matrix(0.46677605950521117 0 0 0.46677605950521117 24.24343120341795 54.44216432451794)" d="M 1048.03943850267 565.43669966578 L 1156.03943850267 565.43669966578 C 1157.33943850267 565.43669966578 1158.43943850267 564.33669966578 1158.43943850267 563.03669966578 C 1158.43943850267 561.73669966578 1157.33943850267 560.63669966578 1156.03943850267 560.63669966578 L 1048.03943850267 560.63669966578 C 1046.73943850267 560.63669966578 1045.63943850267 561.73669966578 1045.63943850267 563.03669966578 C 1045.63943850267 564.33669966578 1046.73943850267 565.43669966578 1048.03943850267 565.43669966578 Z"/><path fill="#aa36a5" transform="matrix(0.46677605950521117 0 0 0.46677605950521117 24.24343120341795 54.44216432451794)" d="M 1048.03943850267 589.13669966578 L 1156.03943850267 589.13669966578 C 1157.33943850267 589.13669966578 1158.43943850267 588.03669966578 1158.43943850267 586.73669966578 C 1158.43943850267 585.43669966578 1157.33943850267 584.33669966578 1156.03943850267 584.33669966578 L 1048.03943850267 584.33669966578 C 1046.73943850267 584.33669966578 1045.63943850267 585.43669966578 1045.63943850267 586.73669966578 C 1045.63943850267 588.13669966578 1046.73943850267 589.13669966578 1048.03943850267 589.13669966578 Z"/><path fill="#aa36a5" transform="matrix(0.46677605950521117 0 0 0.46677605950521117 24.24343120341795 54.44216432451794)" d="M 1048.03943850267 612.83669966578 L 1156.03943850267 612.83669966578 C 1157.33943850267 612.83669966578 1158.43943850267 611.73669966578 1158.43943850267 610.43669966578 C 1158.43943850267 609.13669966578 1157.33943850267 608.03669966578 1156.03943850267 608.03669966578 L 1048.03943850267 608.03669966578 C 1046.73943850267 608.03669966578 1045.63943850267 609.13669966578 1045.63943850267 610.43669966578 C 1045.63943850267 611.73669966578 1046.73943850267 612.83669966578 1048.03943850267 612.83669966578 Z"/><path fill="#aa36a5" transform="matrix(0.46677605950521117 0 0 0.46677605950521117 24.24343120341795 54.44216432451794)" d="M 1048.03943850267 636.53669966578 L 1156.03943850267 636.53669966578 C 1157.33943850267 636.53669966578 1158.43943850267 635.43669966578 1158.43943850267 634.13669966578 C 1158.43943850267 632.83669966578 1157.33943850267 631.73669966578 1156.03943850267 631.73669966578 L 1048.03943850267 631.73669966578 C 1046.73943850267 631.73669966578 1045.63943850267 632.83669966578 1045.63943850267 634.13669966578 C 1045.63943850267 635.43669966578 1046.73943850267 636.53669966578 1048.03943850267 636.53669966578 Z"/><path fill="#aa36a5" transform="matrix(0.46677605950521117 0 0 0.46677605950521117 24.24343120341795 54.44216432451794)" d="M 1048.03943850267 660.23669966578 L 1156.03943850267 660.23669966578 C 1157.33943850267 660.23669966578 1158.43943850267 659.13669966578 1158.43943850267 657.83669966578 C 1158.43943850267 656.53669966578 1157.33943850267 655.43669966578 1156.03943850267 655.43669966578 L 1048.03943850267 655.43669966578 C 1046.73943850267 655.43669966578 1045.63943850267 656.53669966578 1045.63943850267 657.83669966578 C 1045.63943850267 659.13669966578 1046.73943850267 660.23669966578 1048.03943850267 660.23669966578 Z"/><path fill="#aa36a5" transform="matrix(0.46677605950521117 0 0 0.46677605950521117 24.24343120341795 54.44216432451794)" d="M 1048.03943850267 683.93669966578 L 1156.03943850267 683.93669966578 C 1157.33943850267 683.93669966578 1158.43943850267 682.83669966578 1158.43943850267 681.53669966578 C 1158.43943850267 680.23669966578 1157.33943850267 679.13669966578 1156.03943850267 679.13669966578 L 1048.03943850267 679.13669966578 C 1046.73943850267 679.13669966578 1045.63943850267 680.23669966578 1045.63943850267 681.53669966578 C 1045.63943850267 682.83669966578 1046.73943850267 683.93669966578 1048.03943850267 683.93669966578 Z"/><path fill="#aa36a5" transform="matrix(0.46677605950521117 0 0 0.46677605950521117 24.24343120341795 54.44216432451794)" d="M 1048.03943850267 707.63669966578 L 1156.03943850267 707.63669966578 C 1157.33943850267 707.63669966578 1158.43943850267 706.53669966578 1158.43943850267 705.23669966578 C 1158.43943850267 703.93669966578 1157.33943850267 702.83669966578 1156.03943850267 702.83669966578 L 1048.03943850267 702.83669966578 C 1046.73943850267 702.83669966578 1045.63943850267 703.93669966578 1045.63943850267 705.23669966578 C 1045.63943850267 706.53669966578 1046.73943850267 707.63669966578 1048.03943850267 707.63669966578 Z"/><path fill="#aa36a5" transform="matrix(0.46677605950521117 0 0 0.46677605950521117 24.24343120341795 54.44216432451794)" d="M 880.93943850267 565.43669966578 L 988.93943850267 565.43669966578 C 990.23943850267 565.43669966578 991.33943850267 564.33669966578 991.33943850267 563.03669966578 C 991.33943850267 561.73669966578 990.23943850267 560.63669966578 988.93943850267 560.63669966578 L 880.93943850267 560.63669966578 C 879.63943850267 560.63669966578 878.53943850267 561.73669966578 878.53943850267 563.03669966578 C 878.53943850267 564.33669966578 879.63943850267 565.43669966578 880.93943850267 565.43669966578 Z"/><path fill="#aa36a5" transform="matrix(0.46677605950521117 0 0 0.46677605950521117 24.24343120341795 54.44216432451794)" d="M 880.93943850267 589.13669966578 L 988.93943850267 589.13669966578 C 990.23943850267 589.13669966578 991.33943850267 588.03669966578 991.33943850267 586.73669966578 C 991.33943850267 585.43669966578 990.23943850267 584.33669966578 988.93943850267 584.33669966578 L 880.93943850267 584.33669966578 C 879.63943850267 584.33669966578 878.53943850267 585.43669966578 878.53943850267 586.73669966578 C 878.53943850267 588.13669966578 879.63943850267 589.13669966578 880.93943850267 589.13669966578 Z"/><path fill="#aa36a5" transform="matrix(0.46677605950521117 0 0 0.46677605950521117 24.24343120341795 54.44216432451794)" d="M 880.93943850267 612.83669966578 L 988.93943850267 612.83669966578 C 990.23943850267 612.83669966578 991.33943850267 611.73669966578 991.33943850267 610.43669966578 C 991.33943850267 609.13669966578 990.23943850267 608.03669966578 988.93943850267 608.03669966578 L 880.93943850267 608.03669966578 C 879.63943850267 608.03669966578 878.53943850267 609.13669966578 878.53943850267 610.43669966578 C 878.53943850267 611.73669966578 879.63943850267 612.83669966578 880.93943850267 612.83669966578 Z"/><path fill="#aa36a5" transform="matrix(0.46677605950521117 0 0 0.46677605950521117 24.24343120341795 54.44216432451794)" d="M 880.93943850267 636.53669966578 L 988.93943850267 636.53669966578 C 990.23943850267 636.53669966578 991.33943850267 635.43669966578 991.33943850267 634.13669966578 C 991.33943850267 632.83669966578 990.23943850267 631.73669966578 988.93943850267 631.73669966578 L 880.93943850267 631.73669966578 C 879.63943850267 631.73669966578 878.53943850267 632.83669966578 878.53943850267 634.13669966578 C 878.53943850267 635.43669966578 879.63943850267 636.53669966578 880.93943850267 636.53669966578 Z"/><path fill="#aa36a5" transform="matrix(0.46677605950521117 0 0 0.46677605950521117 24.24343120341795 54.44216432451794)" d="M 880.93943850267 660.23669966578 L 988.93943850267 660.23669966578 C 990.23943850267 660.23669966578 991.33943850267 659.13669966578 991.33943850267 657.83669966578 C 991.33943850267 656.53669966578 990.23943850267 655.43669966578 988.93943850267 655.43669966578 L 880.93943850267 655.43669966578 C 879.63943850267 655.43669966578 878.53943850267 656.53669966578 878.53943850267 657.83669966578 C 878.53943850267 659.13669966578 879.63943850267 660.23669966578 880.93943850267 660.23669966578 Z"/><path fill="#aa36a5" transform="matrix(0.46677605950521117 0 0 0.46677605950521117 24.24343120341795 54.44216432451794)" d="M 880.93943850267 683.93669966578 L 988.93943850267 683.93669966578 C 990.23943850267 683.93669966578 991.33943850267 682.83669966578 991.33943850267 681.53669966578 C 991.33943850267 680.23669966578 990.23943850267 679.13669966578 988.93943850267 679.13669966578 L 880.93943850267 679.13669966578 C 879.63943850267 679.13669966578 878.53943850267 680.23669966578 878.53943850267 681.53669966578 C 878.53943850267 682.83669966578 879.63943850267 683.93669966578 880.93943850267 683.93669966578 Z"/><path fill="#aa36a5" transform="matrix(0.46677605950521117 0 0 0.46677605950521117 24.24343120341795 54.44216432451794)" d="M 991.23943850267 705.23669966578 C 991.23943850267 703.93669966578 990.13943850267 702.83669966578 988.83943850267 702.83669966578 L 880.93943850267 702.83669966578 C 879.63943850267 702.83669966578 878.53943850267 703.93669966578 878.53943850267 705.23669966578 C 878.53943850267 706.53669966578 879.63943850267 707.63669966578 880.93943850267 707.63669966578 L 988.93943850267 707.63669966578 C 990.23943850267 707.63669966578 991.23943850267 706.53669966578 991.23943850267 705.23669966578 Z"/><path id="text" fill="#231e61" transform="matrix(1.0852309371434241 0 0 1.0852309371434241 -6.4592945378776605 404.50611202063806)" d="M 160.58742857143 123.58607085714 L 160.58742857143 137.21807085714 L 182.57142857143 137.21807085714 L 182.57142857143 149.89007085714 L 160.58742857143 149.89007085714 L 160.58742857143 164.67407085714 L 185.45142857143 164.67407085714 L 185.45142857143 177.82607085714 L 144.17142857143 177.82607085714 L 144.17142857143 110.43407085714 L 185.45142857143 110.43407085714 L 185.45142857143 123.58607085714 L 160.58742857143 123.58607085714 Z M 195.96342857143 136.45007085714 C 198.04342857143 132.29007085714 200.87542857143 129.09007085714 204.45942857143 126.85007085714 C 208.04342857143 124.61007085714 212.04342857143 123.49007085714 216.45942857143 123.49007085714 C 219.97942857143 123.49007085714 223.19542857143 124.22607085714 226.10742857143 125.69807085714 C 229.01942857143 127.17007085714 231.30742857143 129.15407085714 232.97142857143 131.65007085714 L 232.97142857143 106.78607085714 L 249.38742857143 106.78607085714 L 249.38742857143 177.82607085714 L 232.97142857143 177.82607085714 L 232.97142857143 170.14607085714 C 231.43542857143 172.70607085714 229.24342857143 174.75407085714 226.39542857143 176.29007085714 C 223.54742857143 177.82607085714 220.23542857143 178.59407085714 216.45942857143 178.59407085714 C 212.04342857143 178.59407085714 208.04342857143 177.45807085714 204.45942857143 175.18607085714 C 200.87542857143 172.91407085714 198.04342857143 169.68207085714 195.96342857143 165.49007085714 C 193.88342857143 161.29807085714 192.84342857143 156.45007085714 192.84342857143 150.94607085714 C 192.84342857143 145.44207085714 193.88342857143 140.61007085714 195.96342857143 136.45007085714 Z M 229.56342857143 141.34607085714 C 227.29142857143 138.97807085714 224.52342857143 137.79407085714 221.25942857143 137.79407085714 C 217.99542857143 137.79407085714 215.22742857143 138.96207085714 212.95542857143 141.29807085714 C 210.68342857143 143.63407085714 209.54742857143 146.85007085714 209.54742857143 150.94607085714 C 209.54742857143 155.04207085714 210.68342857143 158.29007085714 212.95542857143 160.69007085714 C 215.22742857143 163.09007085714 217.99542857143 164.29007085714 221.25942857143 164.29007085714 C 224.52342857143 164.29007085714 227.29142857143 163.10607085714 229.56342857143 160.73807085714 C 231.83542857143 158.37007085714 232.97142857143 155.13807085714 232.97142857143 151.04207085714 C 232.97142857143 146.94607085714 231.83542857143 143.71407085714 229.56342857143 141.34607085714 Z M 314.18742857143 124.25807085714 L 314.18742857143 177.82607085714 L 297.77142857143 177.82607085714 L 297.77142857143 170.53007085714 C 296.10742857143 172.89807085714 293.85142857143 174.80207085714 291.00342857143 176.24207085714 C 288.15542857143 177.68207085714 285.00342857143 178.40207085714 281.54742857143 178.40207085714 C 277.45142857143 178.40207085714 273.83542857143 177.49007085714 270.69942857143 175.66607085714 C 267.56342857143 173.84207085714 265.13142857143 171.20207085714 263.40342857143 167.74607085714 C 261.67542857143 164.29007085714 260.81142857143 160.22607085714 260.81142857143 155.55407085714 L 260.81142857143 124.25807085714 L 277.13142857143 124.25807085714 L 277.13142857143 153.34607085714 C 277.13142857143 156.93007085714 278.05942857143 159.71407085714 279.91542857143 161.69807085714 C 281.77142857143 163.68207085714 284.26742857143 164.67407085714 287.40342857143 164.67407085714 C 290.60342857143 164.67407085714 293.13142857143 163.68207085714 294.98742857143 161.69807085714 C 296.84342857143 159.71407085714 297.77142857143 156.93007085714 297.77142857143 153.34607085714 L 297.77142857143 124.25807085714 L 314.18742857143 124.25807085714 Z M 326.13942857143 136.45007085714 C 328.41142857143 132.29007085714 331.57942857143 129.09007085714 335.64342857143 126.85007085714 C 339.70742857143 124.61007085714 344.36342857143 123.49007085714 349.61142857143 123.49007085714 C 356.33142857143 123.49007085714 361.94742857143 125.25007085714 366.45942857143 128.77007085714 C 370.97142857143 132.29007085714 373.93142857143 137.25007085714 375.33942857143 143.65007085714 L 357.86742857143 143.65007085714 C 356.39542857143 139.55407085714 353.54742857143 137.50607085714 349.32342857143 137.50607085714 C 346.31542857143 137.50607085714 343.91542857143 138.67407085714 342.12342857143 141.01007085714 C 340.33142857143 143.34607085714 339.43542857143 146.69007085714 339.43542857143 151.04207085714 C 339.43542857143 155.39407085714 340.33142857143 158.73807085714 342.12342857143 161.07407085714 C 343.91542857143 163.41007085714 346.31542857143 164.57807085714 349.32342857143 164.57807085714 C 353.54742857143 164.57807085714 356.39542857143 162.53007085714 357.86742857143 158.43407085714 L 375.33942857143 158.43407085714 C 373.93142857143 164.70607085714 370.95542857143 169.63407085714 366.41142857143 173.21807085714 C 361.86742857143 176.80207085714 356.26742857143 178.59407085714 349.61142857143 178.59407085714 C 344.36342857143 178.59407085714 339.70742857143 177.47407085714 335.64342857143 175.23407085714 C 331.57942857143 172.99407085714 328.41142857143 169.79407085714 326.13942857143 165.63407085714 C 323.86742857143 161.47407085714 322.73142857143 156.61007085714 322.73142857143 151.04207085714 C 322.73142857143 145.47407085714 323.86742857143 140.61007085714 326.13942857143 136.45007085714 Z M 383.93142857143 136.45007085714 C 386.01142857143 132.29007085714 388.84342857143 129.09007085714 392.42742857143 126.85007085714 C 396.01142857143 124.61007085714 400.01142857143 123.49007085714 404.42742857143 123.49007085714 C 408.20342857143 123.49007085714 411.51542857143 124.25807085714 414.36342857143 125.79407085714 C 417.21142857143 127.33007085714 419.40342857143 129.34607085714 420.93942857143 131.84207085714 L 420.93942857143 124.25807085714 L 437.35542857143 124.25807085714 L 437.35542857143 177.82607085714 L 420.93942857143 177.82607085714 L 420.93942857143 170.24207085714 C 419.33942857143 172.73807085714 417.11542857143 174.75407085714 414.26742857143 176.29007085714 C 411.41942857143 177.82607085714 408.10742857143 178.59407085714 404.33142857143 178.59407085714 C 399.97942857143 178.59407085714 396.01142857143 177.45807085714 392.42742857143 175.18607085714 C 388.84342857143 172.91407085714 386.01142857143 169.68207085714 383.93142857143 165.49007085714 C 381.85142857143 161.29807085714 380.81142857143 156.45007085714 380.81142857143 150.94607085714 C 380.81142857143 145.44207085714 381.85142857143 140.61007085714 383.93142857143 136.45007085714 Z M 417.53142857143 141.34607085714 C 415.25942857143 138.97807085714 412.49142857143 137.79407085714 409.22742857143 137.79407085714 C 405.96342857143 137.79407085714 403.19542857143 138.96207085714 400.92342857143 141.29807085714 C 398.65142857143 143.63407085714 397.51542857143 146.85007085714 397.51542857143 150.94607085714 C 397.51542857143 155.04207085714 398.65142857143 158.29007085714 400.92342857143 160.69007085714 C 403.19542857143 163.09007085714 405.96342857143 164.29007085714 409.22742857143 164.29007085714 C 412.49142857143 164.29007085714 415.25942857143 163.10607085714 417.53142857143 160.73807085714 C 419.80342857143 158.37007085714 420.93942857143 155.13807085714 420.93942857143 151.04207085714 C 420.93942857143 146.94607085714 419.80342857143 143.71407085714 417.53142857143 141.34607085714 Z M 479.11542857143 163.90607085714 L 479.11542857143 177.82607085714 L 470.76342857143 177.82607085714 C 464.81142857143 177.82607085714 460.17142857143 176.37007085714 456.84342857143 173.45807085714 C 453.51542857143 170.54607085714 451.85142857143 165.79407085714 451.85142857143 159.20207085714 L 451.85142857143 137.89007085714 L 445.32342857143 137.89007085714 L 445.32342857143 124.25807085714 L 451.85142857143 124.25807085714 L 451.85142857143 111.20207085714 L 468.26742857143 111.20207085714 L 468.26742857143 124.25807085714 L 479.01942857143 124.25807085714 L 479.01942857143 137.89007085714 L 468.26742857143 137.89007085714 L 468.26742857143 159.39407085714 C 468.26742857143 160.99407085714 468.65142857143 162.14607085714 469.41942857143 162.85007085714 C 470.18742857143 163.55407085714 471.46742857143 163.90607085714 473.25942857143 163.90607085714 L 479.11542857143 163.90607085714 Z M 538.44342857143 154.97807085714 L 501.29142857143 154.97807085714 C 501.54742857143 158.30607085714 502.61942857143 160.85007085714 504.50742857143 162.61007085714 C 506.39542857143 164.37007085714 508.71542857143 165.25007085714 511.46742857143 165.25007085714 C 515.56342857143 165.25007085714 518.41142857143 163.52207085714 520.01142857143 160.06607085714 L 537.48342857143 160.06607085714 C 536.58742857143 163.58607085714 534.97142857143 166.75407085714 532.63542857143 169.57007085714 C 530.29942857143 172.38607085714 527.37142857143 174.59407085714 523.85142857143 176.19407085714 C 520.33142857143 177.79407085714 516.39542857143 178.59407085714 512.04342857143 178.59407085714 C 506.79542857143 178.59407085714 502.12342857143 177.47407085714 498.02742857143 175.23407085714 C 493.93142857143 172.99407085714 490.73142857143 169.79407085714 488.42742857143 165.63407085714 C 486.12342857143 161.47407085714 484.97142857143 156.61007085714 484.97142857143 151.04207085714 C 484.97142857143 145.47407085714 486.10742857143 140.61007085714 488.37942857143 136.45007085714 C 490.65142857143 132.29007085714 493.83542857143 129.09007085714 497.93142857143 126.85007085714 C 502.02742857143 124.61007085714 506.73142857143 123.49007085714 512.04342857143 123.49007085714 C 517.22742857143 123.49007085714 521.83542857143 124.57807085714 525.86742857143 126.75407085714 C 529.89942857143 128.93007085714 533.05142857143 132.03407085714 535.32342857143 136.06607085714 C 537.59542857143 140.09807085714 538.73142857143 144.80207085714 538.73142857143 150.17807085714 C 538.73142857143 151.71407085714 538.63542857143 153.31407085714 538.44342857143 154.97807085714 Z M 521.93142857143 145.85807085714 C 521.93142857143 143.04207085714 520.97142857143 140.80207085714 519.05142857143 139.13807085714 C 517.13142857143 137.47407085714 514.73142857143 136.64207085714 511.85142857143 136.64207085714 C 509.09942857143 136.64207085714 506.77942857143 137.44207085714 504.89142857143 139.04207085714 C 503.00342857143 140.64207085714 501.83542857143 142.91407085714 501.38742857143 145.85807085714 L 521.93142857143 145.85807085714 Z M 547.99542857143 176.05007085714 C 546.17142857143 174.35407085714 545.25942857143 172.25807085714 545.25942857143 169.76207085714 C 545.25942857143 167.20207085714 546.17142857143 165.05807085714 547.99542857143 163.33007085714 C 549.81942857143 161.60207085714 552.17142857143 160.73807085714 555.05142857143 160.73807085714 C 557.86742857143 160.73807085714 560.18742857143 161.60207085714 562.01142857143 163.33007085714 C 563.83542857143 165.05807085714 564.74742857143 167.20207085714 564.74742857143 169.76207085714 C 564.74742857143 172.25807085714 563.83542857143 174.35407085714 562.01142857143 176.05007085714 C 560.18742857143 177.74607085714 557.86742857143 178.59407085714 555.05142857143 178.59407085714 C 552.17142857143 178.59407085714 549.81942857143 177.74607085714 547.99542857143 176.05007085714 Z M 616.39542857143 165.92207085714 L 591.24342857143 165.92207085714 L 587.21142857143 177.82607085714 L 570.02742857143 177.82607085714 L 594.41142857143 110.43407085714 L 613.41942857143 110.43407085714 L 637.80342857143 177.82607085714 L 620.42742857143 177.82607085714 L 616.39542857143 165.92207085714 Z M 612.17142857143 153.25007085714 L 603.81942857143 128.57807085714 L 595.56342857143 153.25007085714 L 612.17142857143 153.25007085714 Z M 668.23542857143 125.79407085714 C 671.11542857143 124.25807085714 674.41142857143 123.49007085714 678.12342857143 123.49007085714 C 682.53942857143 123.49007085714 686.53942857143 124.61007085714 690.12342857143 126.85007085714 C 693.70742857143 129.09007085714 696.53942857143 132.29007085714 698.61942857143 136.45007085714 C 700.69942857143 140.61007085714 701.73942857143 145.44207085714 701.73942857143 150.94607085714 C 701.73942857143 156.45007085714 700.69942857143 161.29807085714 698.61942857143 165.49007085714 C 696.53942857143 169.68207085714 693.70742857143 172.91407085714 690.12342857143 175.18607085714 C 686.53942857143 177.45807085714 682.53942857143 178.59407085714 678.12342857143 178.59407085714 C 674.34742857143 178.59407085714 671.05142857143 177.84207085714 668.23542857143 176.33807085714 C 665.41942857143 174.83407085714 663.21142857143 172.83407085714 661.61142857143 170.33807085714 L 661.61142857143 177.82607085714 L 645.19542857143 177.82607085714 L 645.19542857143 106.78607085714 L 661.61142857143 106.78607085714 L 661.61142857143 131.84207085714 C 663.14742857143 129.34607085714 665.35542857143 127.33007085714 668.23542857143 125.79407085714 Z M 681.62742857143 141.29807085714 C 679.35542857143 138.96207085714 676.55542857143 137.79407085714 673.22742857143 137.79407085714 C 669.96342857143 137.79407085714 667.19542857143 138.97807085714 664.92342857143 141.34607085714 C 662.65142857143 143.71407085714 661.51542857143 146.94607085714 661.51542857143 151.04207085714 C 661.51542857143 155.13807085714 662.65142857143 158.37007085714 664.92342857143 160.73807085714 C 667.19542857143 163.10607085714 669.96342857143 164.29007085714 673.22742857143 164.29007085714 C 676.49142857143 164.29007085714 679.27542857143 163.09007085714 681.57942857143 160.69007085714 C 683.88342857143 158.29007085714 685.03542857143 155.04207085714 685.03542857143 150.94607085714 C 685.03542857143 146.85007085714 683.89942857143 143.63407085714 681.62742857143 141.29807085714 Z M 726.79542857143 106.78607085714 L 726.79542857143 177.82607085714 L 710.37942857143 177.82607085714 L 710.37942857143 106.78607085714 L 726.79542857143 106.78607085714 Z M 788.90742857143 154.97807085714 L 751.75542857143 154.97807085714 C 752.01142857143 158.30607085714 753.08342857143 160.85007085714 754.97142857143 162.61007085714 C 756.85942857143 164.37007085714 759.17942857143 165.25007085714 761.93142857143 165.25007085714 C 766.02742857143 165.25007085714 768.87542857143 163.52207085714 770.47542857143 160.06607085714 L 787.94742857143 160.06607085714 C 787.05142857143 163.58607085714 785.43542857143 166.75407085714 783.09942857143 169.57007085714 C 780.76342857143 172.38607085714 777.83542857143 174.59407085714 774.31542857143 176.19407085714 C 770.79542857143 177.79407085714 766.85942857143 178.59407085714 762.50742857143 178.59407085714 C 757.25942857143 178.59407085714 752.58742857143 177.47407085714 748.49142857143 175.23407085714 C 744.39542857143 172.99407085714 741.19542857143 169.79407085714 738.89142857143 165.63407085714 C 736.58742857143 161.47407085714 735.43542857143 156.61007085714 735.43542857143 151.04207085714 C 735.43542857143 145.47407085714 736.57142857143 140.61007085714 738.84342857143 136.45007085714 C 741.11542857143 132.29007085714 744.29942857143 129.09007085714 748.39542857143 126.85007085714 C 752.49142857143 124.61007085714 757.19542857143 123.49007085714 762.50742857143 123.49007085714 C 767.69142857143 123.49007085714 772.29942857143 124.57807085714 776.33142857143 126.75407085714 C 780.36342857143 128.93007085714 783.51542857143 132.03407085714 785.78742857143 136.06607085714 C 788.05942857143 140.09807085714 789.19542857143 144.80207085714 789.19542857143 150.17807085714 C 789.19542857143 151.71407085714 789.09942857143 153.31407085714 788.90742857143 154.97807085714 Z M 772.39542857143 145.85807085714 C 772.39542857143 143.04207085714 771.43542857143 140.80207085714 769.51542857143 139.13807085714 C 767.59542857143 137.47407085714 765.19542857143 136.64207085714 762.31542857143 136.64207085714 C 759.56342857143 136.64207085714 757.24342857143 137.44207085714 755.35542857143 139.04207085714 C 753.46742857143 140.64207085714 752.29942857143 142.91407085714 751.85142857143 145.85807085714 L 772.39542857143 145.85807085714 Z"/><path id="text" fill="#aa36a5" transform="matrix(0.5426154685717121 0 0 0.5426154685717121 -4.011013543682096 511.5706553554596)" d="M 518.35885714286 288.74014171429 L 518.35885714286 355.65214171429 L 509.62285714286 355.65214171429 L 509.62285714286 288.74014171429 L 518.35885714286 288.74014171429 Z M 584.02285714286 288.74014171429 L 584.02285714286 295.84414171429 L 565.78285714286 295.84414171429 L 565.78285714286 355.65214171429 L 557.04685714286 355.65214171429 L 557.04685714286 295.84414171429 L 538.71085714286 295.84414171429 L 538.71085714286 288.74014171429 L 584.02285714286 288.74014171429 Z M 640.75885714286 304.53214171429 C 643.70285714286 299.31614171429 647.71885714286 295.23614171429 652.80685714286 292.29214171429 C 657.89485714286 289.34814171429 663.54285714286 287.87614171429 669.75085714286 287.87614171429 C 677.04685714286 287.87614171429 683.41485714286 289.63614171429 688.85485714286 293.15614171429 C 694.29485714286 296.67614171429 698.26285714286 301.66814171429 700.75885714286 308.13214171429 L 690.29485714286 308.13214171429 C 688.43885714286 304.10014171429 685.76685714286 300.99614171429 682.27885714286 298.82014171429 C 678.79085714286 296.64414171429 674.61485714286 295.55614171429 669.75085714286 295.55614171429 C 665.07885714286 295.55614171429 660.88685714286 296.64414171429 657.17485714286 298.82014171429 C 653.46285714286 300.99614171429 650.55085714286 304.08414171429 648.43885714286 308.08414171429 C 646.32685714286 312.08414171429 645.27085714286 316.77214171429 645.27085714286 322.14814171429 C 645.27085714286 327.46014171429 646.32685714286 332.11614171429 648.43885714286 336.11614171429 C 650.55085714286 340.11614171429 653.46285714286 343.20414171429 657.17485714286 345.38014171429 C 660.88685714286 347.55614171429 665.07885714286 348.64414171429 669.75085714286 348.64414171429 C 674.61485714286 348.64414171429 678.79085714286 347.57214171429 682.27885714286 345.42814171429 C 685.76685714286 343.28414171429 688.43885714286 340.19614171429 690.29485714286 336.16414171429 L 700.75885714286 336.16414171429 C 698.26285714286 342.56414171429 694.29485714286 347.50814171429 688.85485714286 350.99614171429 C 683.41485714286 354.48414171429 677.04685714286 356.22814171429 669.75085714286 356.22814171429 C 663.54285714286 356.22814171429 657.89485714286 354.77214171429 652.80685714286 351.86014171429 C 647.71885714286 348.94814171429 643.70285714286 344.90014171429 640.75885714286 339.71614171429 C 637.81485714286 334.53214171429 636.34285714286 328.67614171429 636.34285714286 322.14814171429 C 636.34285714286 315.62014171429 637.81485714286 309.74814171429 640.75885714286 304.53214171429 Z M 762.87085714286 340.77214171429 L 733.68685714286 340.77214171429 L 728.31085714286 355.65214171429 L 719.09485714286 355.65214171429 L 743.28685714286 289.12414171429 L 753.36685714286 289.12414171429 L 777.46285714286 355.65214171429 L 768.24685714286 355.65214171429 L 762.87085714286 340.77214171429 Z M 760.37485714286 333.66814171429 L 748.27885714286 299.87614171429 L 736.18285714286 333.66814171429 L 760.37485714286 333.66814171429 Z M 850.23085714286 355.65214171429 L 841.49485714286 355.65214171429 L 806.35885714286 302.37214171429 L 806.35885714286 355.65214171429 L 797.62285714286 355.65214171429 L 797.62285714286 288.64414171429 L 806.35885714286 288.64414171429 L 841.49485714286 341.82814171429 L 841.49485714286 288.64414171429 L 850.23085714286 288.64414171429 L 850.23085714286 355.65214171429 Z M 950.11885714286 324.16414171429 C 952.13485714286 325.76414171429 953.73485714286 327.74814171429 954.91885714286 330.11614171429 C 956.10285714286 332.48414171429 956.69485714286 335.01214171429 956.69485714286 337.70014171429 C 956.69485714286 341.09214171429 955.83085714286 344.14814171429 954.10285714286 346.86814171429 C 952.37485714286 349.58814171429 949.86285714286 351.73214171429 946.56685714286 353.30014171429 C 943.27085714286 354.86814171429 939.38285714286 355.65214171429 934.90285714286 355.65214171429 L 909.94285714286 355.65214171429 L 909.94285714286 288.74014171429 L 933.94285714286 288.74014171429 C 938.48685714286 288.74014171429 942.35885714286 289.49214171429 945.55885714286 290.99614171429 C 948.75885714286 292.50014171429 951.15885714286 294.53214171429 952.75885714286 297.09214171429 C 954.35885714286 299.65214171429 955.15885714286 302.53214171429 955.15885714286 305.73214171429 C 955.15885714286 309.70014171429 954.08685714286 312.98014171429 951.94285714286 315.57214171429 C 949.79885714286 318.16414171429 946.96685714286 320.03614171429 943.44685714286 321.18814171429 C 945.87885714286 321.57214171429 948.10285714286 322.56414171429 950.11885714286 324.16414171429 Z M 918.67885714286 317.63614171429 L 933.36685714286 317.63614171429 C 937.46285714286 317.63614171429 940.63085714286 316.67614171429 942.87085714286 314.75614171429 C 945.11085714286 312.83614171429 946.23085714286 310.18014171429 946.23085714286 306.78814171429 C 946.23085714286 303.39614171429 945.11085714286 300.74014171429 942.87085714286 298.82014171429 C 940.63085714286 296.90014171429 937.39885714286 295.94014171429 933.17485714286 295.94014171429 L 918.67885714286 295.94014171429 L 918.67885714286 317.63614171429 Z M 944.31085714286 345.38014171429 C 946.74285714286 343.33214171429 947.95885714286 340.48414171429 947.95885714286 336.83614171429 C 947.95885714286 333.12414171429 946.67885714286 330.19614171429 944.11885714286 328.05214171429 C 941.55885714286 325.90814171429 938.13485714286 324.83614171429 933.84685714286 324.83614171429 L 918.67885714286 324.83614171429 L 918.67885714286 348.45214171429 L 934.13485714286 348.45214171429 C 938.48685714286 348.45214171429 941.87885714286 347.42814171429 944.31085714286 345.38014171429 Z M 987.12685714286 295.84414171429 L 987.12685714286 318.21214171429 L 1011.51085714286 318.21214171429 L 1011.51085714286 325.41214171429 L 987.12685714286 325.41214171429 L 987.12685714286 348.45214171429 L 1014.39085714286 348.45214171429 L 1014.39085714286 355.65214171429 L 978.39085714286 355.65214171429 L 978.39085714286 288.64414171429 L 1014.39085714286 288.64414171429 L 1014.39085714286 295.84414171429 L 987.12685714286 295.84414171429 Z M 1112.26285714286 292.82014171429 C 1117.60685714286 295.54014171429 1121.70285714286 299.42814171429 1124.55085714286 304.48414171429 C 1127.39885714286 309.54014171429 1128.82285714286 315.49214171429 1128.82285714286 322.34014171429 C 1128.82285714286 329.18814171429 1127.39885714286 335.12414171429 1124.55085714286 340.14814171429 C 1121.70285714286 345.17214171429 1117.60685714286 349.01214171429 1112.26285714286 351.66814171429 C 1106.91885714286 354.32414171429 1100.59885714286 355.65214171429 1093.30285714286 355.65214171429 L 1072.47085714286 355.65214171429 L 1072.47085714286 288.74014171429 L 1093.30285714286 288.74014171429 C 1100.59885714286 288.74014171429 1106.91885714286 290.10014171429 1112.26285714286 292.82014171429 Z M 1113.07885714286 341.58814171429 C 1117.62285714286 337.01214171429 1119.89485714286 330.59614171429 1119.89485714286 322.34014171429 C 1119.89485714286 314.02014171429 1117.60685714286 307.52414171429 1113.03085714286 302.85214171429 C 1108.45485714286 298.18014171429 1101.87885714286 295.84414171429 1093.30285714286 295.84414171429 L 1081.20685714286 295.84414171429 L 1081.20685714286 348.45214171429 L 1093.30285714286 348.45214171429 C 1101.94285714286 348.45214171429 1108.53485714286 346.16414171429 1113.07885714286 341.58814171429 Z M 1163.28685714286 351.95614171429 C 1158.16685714286 349.04414171429 1154.11885714286 344.98014171429 1151.14285714286 339.76414171429 C 1148.16685714286 334.54814171429 1146.67885714286 328.67614171429 1146.67885714286 322.14814171429 C 1146.67885714286 315.62014171429 1148.16685714286 309.74814171429 1151.14285714286 304.53214171429 C 1154.11885714286 299.31614171429 1158.16685714286 295.25214171429 1163.28685714286 292.34014171429 C 1168.40685714286 289.42814171429 1174.07085714286 287.97214171429 1180.27885714286 287.97214171429 C 1186.55085714286 287.97214171429 1192.24685714286 289.42814171429 1197.36685714286 292.34014171429 C 1202.48685714286 295.25214171429 1206.51885714286 299.30014171429 1209.46285714286 304.48414171429 C 1212.40685714286 309.66814171429 1213.87885714286 315.55614171429 1213.87885714286 322.14814171429 C 1213.87885714286 328.74014171429 1212.40685714286 334.62814171429 1209.46285714286 339.81214171429 C 1206.51885714286 344.99614171429 1202.48685714286 349.04414171429 1197.36685714286 351.95614171429 C 1192.24685714286 354.86814171429 1186.55085714286 356.32414171429 1180.27885714286 356.32414171429 C 1174.07085714286 356.32414171429 1168.40685714286 354.86814171429 1163.28685714286 351.95614171429 Z M 1192.90285714286 345.47614171429 C 1196.64685714286 343.30014171429 1199.59085714286 340.19614171429 1201.73485714286 336.16414171429 C 1203.87885714286 332.13214171429 1204.95085714286 327.46014171429 1204.95085714286 322.14814171429 C 1204.95085714286 316.77214171429 1203.87885714286 312.08414171429 1201.73485714286 308.08414171429 C 1199.59085714286 304.08414171429 1196.66285714286 300.99614171429 1192.95085714286 298.82014171429 C 1189.23885714286 296.64414171429 1185.01485714286 295.55614171429 1180.27885714286 295.55614171429 C 1175.54285714286 295.55614171429 1171.31885714286 296.64414171429 1167.60685714286 298.82014171429 C 1163.89485714286 300.99614171429 1160.96685714286 304.08414171429 1158.82285714286 308.08414171429 C 1156.67885714286 312.08414171429 1155.60685714286 316.77214171429 1155.60685714286 322.14814171429 C 1155.60685714286 327.46014171429 1156.67885714286 332.13214171429 1158.82285714286 336.16414171429 C 1160.96685714286 340.19614171429 1163.91085714286 343.30014171429 1167.65485714286 345.47614171429 C 1171.39885714286 347.65214171429 1175.60685714286 348.74014171429 1180.27885714286 348.74014171429 C 1184.95085714286 348.74014171429 1189.15885714286 347.65214171429 1192.90285714286 345.47614171429 Z M 1287.60685714286 355.65214171429 L 1278.87085714286 355.65214171429 L 1243.73485714286 302.37214171429 L 1243.73485714286 355.65214171429 L 1234.99885714286 355.65214171429 L 1234.99885714286 288.64414171429 L 1243.73485714286 288.64414171429 L 1278.87085714286 341.82814171429 L 1278.87085714286 288.64414171429 L 1287.60685714286 288.64414171429 L 1287.60685714286 355.65214171429 Z M 1320.82285714286 295.84414171429 L 1320.82285714286 318.21214171429 L 1345.20685714286 318.21214171429 L 1345.20685714286 325.41214171429 L 1320.82285714286 325.41214171429 L 1320.82285714286 348.45214171429 L 1348.08685714286 348.45214171429 L 1348.08685714286 355.65214171429 L 1312.08685714286 355.65214171429 L 1312.08685714286 288.64414171429 L 1348.08685714286 288.64414171429 L 1348.08685714286 295.84414171429 L 1320.82285714286 295.84414171429 Z"/></svg>